<?xml version="1.0" encoding="UTF-8"?>
<svg width="16px" height="16px" viewBox="0 0 16 16" version="1.1" xmlns="http://www.w3.org/2000/svg" xmlns:xlink="http://www.w3.org/1999/xlink">
    <title>icon-alarm copy@3x</title>
    <g id="UI" stroke="none" stroke-width="1" fill="none" fill-rule="evenodd">
        <g id="mobil_size-ozel-firsatlar_bildirim" transform="translate(-22.000000, -637.000000)" fill="#1464A5">
            <g id="Group" transform="translate(22.000000, 627.000000)">
                <path d="M10.967867,21.9647458 L13.9241375,18.9885035 C14.8639163,18.0423923 15.3881814,16.7957736 15.4002829,15.4782513 C15.4097043,14.4529523 15.1062721,13.4741101 14.5356313,12.6466587 L16,11.1723853 L14.835571,10 L13.3858216,11.4595729 C12.5456167,10.8415834 11.5398073,10.516548 10.4862415,10.5340911 C9.1913757,10.555614 7.9600227,11.0892178 7.01902568,12.0367097 C6.80720795,12.2497452 4.54706079,14.5252365 4.06543535,15.0100282 L0.238178097,16.0323221 C-0.0214773039,16.1016825 -0.0775180378,16.3117129 0.113101676,16.5015199 L2.99237712,19.3686861 C2.97678318,19.383549 2.96094558,19.3979247 2.94575773,19.4132749 C1.97422257,20.3913861 1.97422257,21.9827763 2.94575773,22.9608875 C3.91721167,23.9389175 5.49788524,23.9389175 6.4694204,22.9608875 C6.48460825,22.9455373 6.49898392,22.9295373 6.51384689,22.9139434 L9.43040161,25.8853938 C9.61874721,26.0772313 9.83024007,26.0225714 9.90284937,25.7638101 L10.967867,21.9647458 Z M3.33341342,17.368687 L4.94202614,17.0517734 L9.0170809,21.1543503 L8.57297838,22.6435679 L3.33341342,17.368687 Z" id="icon-alarm-copy"></path>
            </g>
        </g>
    </g>
</svg>