<?xml version="1.0" encoding="UTF-8"?>
<svg width="24px" height="24px" viewBox="0 0 24 24" version="1.1" xmlns="http://www.w3.org/2000/svg" xmlns:xlink="http://www.w3.org/1999/xlink">
    <title>evadeli_hesap_2</title>
    <g id="evadeli_hesap_2" stroke="none" stroke-width="1" fill="none" fill-rule="evenodd">
        <g id="Icon" transform="translate(1.000000, 1.000000)" fill="#1464A5">
            <path d="M11.5,0 C11.7761424,-5.07265313e-17 12,0.223857625 12,0.5 L12,2.5 C12,2.77614237 11.7761424,3 11.5,3 L10,3 L10.0006955,4.05500569 C12.7094942,4.35466082 15.0559074,5.85649413 16.4945508,8.0151213 C16.3309233,8.00505914 16.1660525,8 16,8 C15.3512591,8 14.7205539,8.07721974 14.1165744,8.22296914 C12.8390704,6.85510728 11.0193957,6 9,6 C5.13400675,6 2,9.13400675 2,13 C2,16.8659932 5.13400675,20 9,20 L9.07035011,20.00016 C9.47219179,20.6947874 9.97547837,21.3233868 10.5599514,21.8656998 C10.0536348,21.9538042 9.53221222,22 9,22 C4.02943725,22 -2.14939178e-13,17.9705627 -2.14939178e-13,13 C-2.14939178e-13,8.3673423 3.50020676,4.5522017 8.0003032,4.05489527 L8,3 L6.5,3 C6.22385763,3 6,2.77614237 6,2.5 L6,0.5 C6,0.223857625 6.22385763,5.07265313e-17 6.5,0 L11.5,0 Z M16,10 C19.3137085,10 22,12.6862915 22,16 C22,19.3137085 19.3137085,22 16,22 C12.6862915,22 10,19.3137085 10,16 C10,12.6862915 12.6862915,10 16,10 Z M15.5,12 L14.2375,12 L14.2375,14.0498615 L13,14.5152355 L13,15.2354571 L14.2375,14.7700831 L14.2375,15.5789474 L13,16.0443213 L13,16.7645429 L14.2375,16.299169 L14.2375,20 L14.825,20 C16.2833406,20 17.3437467,19.7082208 18.00625,19.1246537 C18.6214316,18.58277 18.950989,17.8020472 18.9949299,16.7824647 L19,16.5429363 L17.775,16.5429363 C17.775,16.8753479 17.7333337,17.1837474 17.65,17.468144 C17.5666663,17.7525407 17.4354176,18 17.25625,18.2105263 C17.0770824,18.4210537 16.8416681,18.5854103 16.55,18.7036011 C16.3166655,18.7981538 16.0460008,18.8548848 15.7380006,18.8737951 L15.5,18.8808864 L15.5,15.8227147 L17.8,14.9584488 L17.8,14.2382271 L15.5,15.1024931 L15.5,14.2936288 L17.8,13.4293629 L17.8,12.7091413 L15.5,13.5734072 L15.5,12 Z M7.5,16.5 C7.77614237,16.5 8,16.7238576 8,17 L8,18 C8,18.2761424 7.77614237,18.5 7.5,18.5 L6.5,18.5 C6.22385763,18.5 6,18.2761424 6,18 L6,17 C6,16.7238576 6.22385763,16.5 6.5,16.5 L7.5,16.5 Z M4.5,12.5 C4.77614237,12.5 5,12.7238576 5,13 L5,14 C5,14.2761424 4.77614237,14.5 4.5,14.5 L3.5,14.5 C3.22385763,14.5 3,14.2761424 3,14 L3,13 C3,12.7238576 3.22385763,12.5 3.5,12.5 L4.5,12.5 Z M5.34367313,9 L8.75009565,12.2108773 C8.82554552,12.1839869 8.90397424,12.1631927 8.98483035,12.1495977 C8.61103918,12.8312642 8.3330784,13.5717663 8.16945122,14.3542712 C7.97131385,14.1199397 7.85181744,13.8159114 7.85181744,13.484012 C7.85181744,13.3964471 7.86067231,13.31085 7.8768516,13.2280222 L7.90642252,13.1059579 L4.5,9.89508062 L5.34367313,9 Z M9.5,7 C9.77614237,7 10,7.22385763 10,7.5 L10,8.5 C10,8.77614237 9.77614237,9 9.5,9 L8.5,9 C8.22385763,9 8,8.77614237 8,8.5 L8,7.5 C8,7.22385763 8.22385763,7 8.5,7 L9.5,7 Z" id="Combined-Shape"></path>
        </g>
    </g>
</svg>