<?xml version="1.0" encoding="UTF-8"?>
<svg width="256px" height="256px" viewBox="0 0 256 256" version="1.1" xmlns="http://www.w3.org/2000/svg" xmlns:xlink="http://www.w3.org/1999/xlink">
    <title>Hesaplama_Tasit</title>
    <defs>
        <linearGradient x1="20.4549951%" y1="42.8532923%" x2="79.5450049%" y2="57.1467077%" id="linearGradient-1">
            <stop stop-color="#EAF9FA" offset="0%"></stop>
            <stop stop-color="#EAF9FA" stop-opacity="0.2" offset="100%"></stop>
            <stop stop-color="#EAF9FA" stop-opacity="0.5" offset="100%"></stop>
        </linearGradient>
    </defs>
    <g id="Hesaplama_Tasit" stroke="none" stroke-width="1" fill="none" fill-rule="evenodd">
        <g id="car" transform="translate(0.000000, 73.000000)" fill-rule="nonzero">
            <path d="M10.5893622,55.8979445 L2.48821078,82.631744 L182.623098,87.0873773 L253.04525,54.2198488 L249.862655,41.5473335 C248.952915,37.8474397 245.881924,35.0743811 242.108695,34.5456241 L215.490627,30.7265099 L190.550653,7.23317087 C185.440441,2.85908085 178.933914,0.457618376 172.207332,0.462794228 L108.208236,0.462794228 C101.818133,0.440942896 95.7428485,3.23515043 91.6008759,8.10115137 L69.9592287,35.4714699 L32.6939323,38.480469 C22.3916977,39.0484726 13.5512939,46.0143406 10.5893622,55.8979445 Z" id="Path" fill="#043263"></path>
            <path d="M0.347192202,82.631744 C-0.581994432,86.6144121 1.88727083,90.5978494 5.86754821,91.537224 L5.90226743,91.537224 C6.44690747,91.6978749 7.01256954,91.7758973 7.58036307,91.7686855 L206.116437,91.7686855 L207.100148,91.6529547 L243.728926,83.6096687 C249.173713,82.3908373 253.04525,77.5582693 253.04525,71.97873 L253.04525,71.97873 L205.595649,82.394496 L0.347192202,82.6259575 L0.347192202,82.631744 Z" id="Path" fill="#49A5E6"></path>
            <path d="M193.443922,34.4298933 C189.367025,35.0753941 185.24627,35.4042806 181.118599,35.4136046 L69.9592287,35.4136046 L91.0800876,8.62193968 C95.5436574,3.42911472 102.05509,0.448231429 108.902621,0.462847674 L172.207332,0.462847674 C178.935741,0.447346376 185.445725,2.85008503 190.550653,7.23317087 L215.490627,30.7265099 L193.443922,34.4298933 Z" id="Path" fill="#043263"></path>
            <path d="M0.347192202,82.631744 L207.794533,82.2266864 L253.04525,71.9845165 L253.04525,47.2181394 C253.04525,44.2779887 250.661787,41.8945257 247.721636,41.8945257 L247.490174,41.8945257 L8.73767041,67.1238257 C5.78864117,67.4036578 3.3571714,69.5545733 2.71967225,72.4474394 L0.347192202,82.631744 Z" id="Path" fill="#043263"></path>
            <path d="M9.37418945,60.5272407 L14.8713993,60.5272407 C20.0052778,60.5455779 24.3596133,56.7602749 25.0557039,51.6737727 L25.0557039,51.6737727 C25.0882925,51.3989984 25.0102087,51.1225495 24.8386827,50.905428 C24.6671567,50.6883065 24.416287,50.5483585 24.1414311,50.5164654 L24.0141273,50.5164654 L11.4573427,50.9215229 C10.7433561,50.9355573 10.1164647,51.3999213 9.89497775,52.0788303 L7.75395917,58.2125592 C7.41287612,59.1073634 7.86079932,60.109365 8.75503002,60.4519489 L8.79553578,60.4519489 L9.37418945,60.5272407 Z" id="Path" fill="#EFC650"></path>
            <path d="M164.626969,8.67979571 L91.0800876,8.67979571 L70.0749594,35.2978738 C70.0749594,35.3557392 70.0749594,35.4136046 70.1328248,35.4136046 L70.1328248,35.4136046 L194.543364,32.173144 C195.502108,32.173144 196.279692,31.3959278 196.279692,30.437183 L196.279692,30.3793177 C196.290317,29.859823 196.054112,29.3659399 195.642806,29.0484142 L178.167465,13.3090344 C174.293806,10.3041243 169.529488,8.67529757 164.626969,8.67979571 Z" id="Path" fill="#D4EDFC"></path>
            <path d="M254.144692,51.8473688 L246.04354,51.8473688 C243.519304,51.8079843 241.395456,53.7295615 241.182849,56.2451367 C241.021079,58.827992 242.980752,61.0543043 245.563258,61.2215582 L254.144692,61.2215582 C254.589822,61.2371725 255.0229,61.0751823 255.348515,60.7712747 C255.67413,60.4673672 255.865568,60.0464768 255.880653,59.601328 L255.880653,59.5434626 L255.880653,59.5434626 L255.880653,53.5833298 C255.881173,52.6467356 255.138631,51.8785885 254.202557,51.8473688 L254.144692,51.8473688 Z" id="Path" fill="#DA3951"></path>
            <circle id="Oval" fill="#D4EDFC" cx="55.6086176" cy="82.3424172" r="22.1624355"></circle>
            <path d="M29.0484142,82.3424172 C29.0484142,67.6416637 40.9657295,55.7243484 55.666483,55.7243484 C70.3672365,55.7243484 82.2845518,67.6416637 82.2845518,82.3424172 C82.2845518,97.0431706 70.3672365,108.960486 55.666483,108.960486 L55.6086176,108.960486 C40.9304671,108.928577 29.0484142,97.0206024 29.0484142,82.3424172 L29.0484142,82.3424172 Z M38.7119305,82.3424172 C38.7119305,91.6741998 46.276835,99.2391043 55.6086176,99.2391043 C64.9404003,99.2391043 72.5053048,91.6741998 72.5053048,82.3424172 C72.5053048,73.0106345 64.9404003,65.44573 55.6086176,65.44573 C46.276835,65.44573 38.7119305,73.0106345 38.7119305,82.3424172 L38.7119305,82.3424172 Z" id="Shape" fill="#121212"></path>
            <circle id="Oval" fill="#D4EDFC" cx="205.884976" cy="82.3424172" r="22.1624355"></circle>
            <path d="M179.266907,82.3424172 C179.266907,67.6416637 191.184222,55.7243484 205.884976,55.7243484 C220.585729,55.7243484 232.503044,67.6416637 232.503044,82.3424172 C232.503044,97.0431706 220.585729,108.960486 205.884976,108.960486 L205.884976,108.960486 C191.184222,108.960486 179.266907,97.0431706 179.266907,82.3424172 L179.266907,82.3424172 Z M188.988288,82.3424172 C189.020208,91.6308899 196.56743,99.1393084 205.855944,99.1233741 C215.144457,99.107389 222.665833,91.5730794 222.665833,82.2845518 C222.665833,72.9960243 215.144457,65.4617146 205.855944,65.4457295 C196.56743,65.4297952 189.020208,72.9382137 188.988288,82.2266864 L188.988288,82.3424172 L188.988288,82.3424172 Z" id="Shape" fill="#121212"></path>
            <polygon id="Path" fill="#043263" points="139.108342 8.67980504 148.540397 8.67980504 157.914586 33.1568553 140.323515 33.6776436"></polygon>
            <g id="Group" opacity="0.5" transform="translate(70.017094, 8.679805)" fill="url(#linearGradient-1)">
                <polygon id="Path" points="58.6176167 0 20.8315321 0 0.115730734 26.6180688 43.6883521 25.5186268"></polygon>
            </g>
        </g>
    </g>
</svg>