<?xml version="1.0" encoding="UTF-8"?>
<svg width="256px" height="256px" viewBox="0 0 256 256" version="1.1" xmlns="http://www.w3.org/2000/svg" xmlns:xlink="http://www.w3.org/1999/xlink">
    <title>Hesaplama_Ihtiyac</title>
    <defs>
        <path d="M5.29259729,1.94830536 L0.027800905,36.7388926 C-0.11641629,37.6892713 0.536325792,38.5758662 1.48503167,38.7196697 L1.48503167,38.7196697 C1.57770136,38.734166 1.67152941,38.7411243 1.76535747,38.740089 L1.76535747,38.740089 L25.0370317,38.740089 L44.4750769,0.469680756 L7.03015385,0.469680756 C7.02320362,0.469680756 7.01683258,0.469680756 7.00988235,0.469680756 L7.00988235,0.469680756 C6.1521086,0.469680756 5.42175566,1.09708147 5.29259729,1.94830536" id="path-1"></path>
        <linearGradient x1="50%" y1="0%" x2="50%" y2="100%" id="linearGradient-3">
            <stop stop-color="#F8CD50" offset="0%"></stop>
            <stop stop-color="#F7B500" offset="100%"></stop>
        </linearGradient>
        <path d="M12.8567602,0.28934654 L0.114678733,24.2546621 L44.3702443,24.2546621 L44.3818281,13.6259606 C44.3818281,6.26067052 38.4179548,0.28934654 31.0611403,0.28934654 L31.0611403,0.28934654 L12.8567602,0.28934654 Z" id="path-4"></path>
        <linearGradient x1="77.9060785%" y1="20.9508508%" x2="54.7522518%" y2="58.2003497%" id="linearGradient-6">
            <stop stop-color="#1973B8" offset="0%"></stop>
            <stop stop-color="#49A5E6" offset="100%"></stop>
        </linearGradient>
        <path d="M13.0542624,0.28934654 L0.31160181,24.2546621 L44.5729593,24.2546621 L44.5729593,13.6259606 C44.5729593,6.26067052 38.6085068,0.28934654 31.2516923,0.28934654 L31.2516923,0.28934654 L13.0542624,0.28934654 Z" id="path-7"></path>
        <linearGradient x1="77.9060785%" y1="20.9432478%" x2="54.7522518%" y2="58.2024959%" id="linearGradient-9">
            <stop stop-color="#1973B8" offset="0%"></stop>
            <stop stop-color="#49A5E6" offset="100%"></stop>
        </linearGradient>
        <polygon id="path-10" points="13.1295566 0.28934654 0.392687783 24.2546621 44.6482534 24.2546621 44.6482534 0.28934654"></polygon>
        <linearGradient x1="77.9060785%" y1="20.9356419%" x2="54.7522518%" y2="58.2046431%" id="linearGradient-12">
            <stop stop-color="#1973B8" offset="0%"></stop>
            <stop stop-color="#49A5E6" offset="100%"></stop>
        </linearGradient>
        <polygon id="path-13" points="0.000100001288 0.0230195485 255.944398 0.0230195485 255.944398 64.3808921 0.000100001288 64.3808921"></polygon>
    </defs>
    <g id="Hesaplama_Ihtiyac" stroke="none" stroke-width="1" fill="none" fill-rule="evenodd">
        <g id="micro" transform="translate(0.000000, 38.000000)">
            <polygon id="Fill-1" fill="#C49735" points="195.89676 92.2777722 200.912507 92.2777722 200.912507 35.0636979 195.89676 35.0636979"></polygon>
            <path d="M231.719674,38.8508213 L165.113339,38.8508213 C164.153629,38.8615597 163.366516,38.0915152 163.355966,37.1306991 C163.354932,37.036763 163.361882,36.9428268 163.375783,36.8500504 L168.640579,2.05888328 C168.770317,1.20128101 169.511674,0.570401184 170.378136,0.580144752 L226.471674,0.580144752 C227.338715,0.570401184 228.080072,1.20128101 228.209231,2.05888328 L233.474027,36.8500504 C233.618244,37.7998492 232.966081,38.687024 232.017955,38.8308275 C231.918914,38.8459037 231.819294,38.852282 231.719674,38.8508213" id="Fill-2" fill="#F8CD50"></path>
            <g id="Group-6" transform="translate(163.330317, 0.110752)">
                <mask id="mask-2" fill="white">
                    <use xlink:href="#path-1"></use>
                </mask>
                <g id="Clip-5"></g>
                <path d="M5.29259729,1.94830536 L0.027800905,36.7388926 C-0.11641629,37.6892713 0.536325792,38.5758662 1.48503167,38.7196697 L1.48503167,38.7196697 C1.57770136,38.734166 1.67152941,38.7411243 1.76535747,38.740089 L1.76535747,38.740089 L25.0370317,38.740089 L44.4750769,0.469680756 L7.03015385,0.469680756 C7.02320362,0.469680756 7.01683258,0.469680756 7.00988235,0.469680756 L7.00988235,0.469680756 C6.1521086,0.469680756 5.42175566,1.09708147 5.29259729,1.94830536" id="Fill-4" fill="url(#linearGradient-3)" mask="url(#mask-2)"></path>
            </g>
            <g id="Group-15" transform="translate(12.742081, 58.096030)">
                <path d="M209.982668,0.19686002 L20.5890027,0.19686002 C13.231609,0.19686002 7.26773575,6.16760415 7.26773575,13.5334741 L7.26773575,71.6231261 L223.303935,71.6231261 L223.303935,13.5334741 C223.303935,6.16760415 217.339482,0.19686002 209.982668,0.19686002" id="Fill-7" fill="#043263"></path>
                <path d="M0.172713122,54.2157135 L62.9158805,54.2157135 C70.2732742,54.2157135 76.2371475,60.1870375 76.2371475,67.5523276 L76.2371475,78.1810291 L0.172713122,78.1810291 L0.172713122,54.2157135 Z" id="Fill-9" fill="#49A5E6"></path>
                <path d="M228.371808,78.1810871 L152.301582,78.1810871 L152.301582,67.5523855 C152.301582,60.1870955 158.265455,54.2157715 165.622849,54.2157715 L228.371808,54.2157715 L228.371808,78.1810871 Z" id="Fill-11" fill="#49A5E6"></path>
                <path d="M89.5584724,54.2157135 L138.980373,54.2157135 C146.337187,54.2157135 152.30164,60.1870375 152.30164,67.5523276 L152.30164,78.1810291 L76.2372054,78.1810291 L76.2372054,67.5523276 C76.2372054,60.1870375 82.2010787,54.2157135 89.5584724,54.2157135" id="Fill-13" fill="#49A5E6"></path>
            </g>
            <g id="Group-18" transform="translate(44.597285, 112.022339)">
                <mask id="mask-5" fill="white">
                    <use xlink:href="#path-4"></use>
                </mask>
                <g id="Clip-17"></g>
                <path d="M12.8567602,0.28934654 L0.114678733,24.2546621 L44.3702443,24.2546621 L44.3818281,13.6259606 C44.3818281,6.26067052 38.4179548,0.28934654 31.0611403,0.28934654 L31.0611403,0.28934654 L12.8567602,0.28934654 Z" id="Fill-16" fill="url(#linearGradient-6)" mask="url(#mask-5)"></path>
            </g>
            <g id="Group-21" transform="translate(120.470588, 112.022339)">
                <mask id="mask-8" fill="white">
                    <use xlink:href="#path-7"></use>
                </mask>
                <g id="Clip-20"></g>
                <path d="M13.0542624,0.28934654 L0.31160181,24.2546621 L44.5729593,24.2546621 L44.5729593,13.6259606 C44.5729593,6.26067052 38.6085068,0.28934654 31.2516923,0.28934654 L31.2516923,0.28934654 L13.0542624,0.28934654 Z" id="Fill-19" fill="url(#linearGradient-9)" mask="url(#mask-8)"></path>
            </g>
            <g id="Group-24" transform="translate(196.343891, 112.022339)">
                <mask id="mask-11" fill="white">
                    <use xlink:href="#path-10"></use>
                </mask>
                <g id="Clip-23"></g>
                <polygon id="Fill-22" fill="url(#linearGradient-12)" mask="url(#mask-11)" points="13.1295566 0.28934654 0.392687783 24.2546621 44.6482534 24.2546621 44.6482534 0.28934654"></polygon>
            </g>
            <g id="Group-36" transform="translate(0.000000, 80.710289)">
                <path d="M224.404619,94.5154821 L215.490375,70.1616651 L40.5763475,70.1616651 L31.6632615,94.5154821 C31.3429719,95.4212121 31.8173249,96.4150798 32.7220127,96.7357384 C32.9067729,96.8006819 33.1008,96.8343133 33.2965647,96.8348932 L41.9322208,96.8348932 C42.6666281,96.8331536 43.3205285,96.3686916 43.565524,95.6751876 L48.6681484,81.7587208 L207.364402,81.7587208 L212.467605,95.6751876 C212.712601,96.3686916 213.365922,96.8331536 214.100909,96.8348932 L222.735986,96.8348932 C223.695696,96.8517089 224.487443,96.0863032 224.503904,95.126067 C224.507135,94.9178999 224.473542,94.7114723 224.404619,94.5154821" id="Fill-25" fill="#2DCCCD"></path>
                <path d="M50.9470697,0.556426732 L50.9470697,0.556426732 C53.526762,0.556426732 55.6182009,2.65027514 55.6182009,5.23293944 C55.6182009,7.81560375 53.526762,9.90945215 50.9470697,9.90945215 C48.3673774,9.90945215 46.2759385,7.81560375 46.2759385,5.23293944 C46.2759385,2.65027514 48.3673774,0.556426732 50.9470697,0.556426732" id="Fill-27" fill="#49A5E6"></path>
                <path d="M127.011562,0.556426732 L127.011562,0.556426732 C129.591254,0.556426732 131.682114,2.65027514 131.682114,5.23293944 C131.682114,7.81560375 129.591254,9.90945215 127.011562,9.90945215 C124.43187,9.90945215 122.340431,7.81560375 122.340431,5.23293944 C122.340431,2.65027514 124.43187,0.556426732 127.011562,0.556426732" id="Fill-29" fill="#49A5E6"></path>
                <path d="M203.081672,0.556426732 L203.081672,0.556426732 C205.661365,0.556426732 207.752804,2.65027514 207.752804,5.23293944 C207.752804,7.81560375 205.661365,9.90945215 203.081672,9.90945215 C200.50198,9.90945215 198.410541,7.81560375 198.410541,5.23293944 C198.410541,2.65027514 200.50198,0.556426732 203.081672,0.556426732" id="Fill-31" fill="#49A5E6"></path>
                <g id="Group-35" transform="translate(0.000000, 11.597056)">
                    <mask id="mask-14" fill="white">
                        <use xlink:href="#path-13"></use>
                    </mask>
                    <g id="Clip-34"></g>
                    <path d="M225.742306,9.48041908 L217.054523,36.524753 C216.824007,37.2426107 216.156786,37.729687 215.403844,37.7308468 L40.6751566,37.7308468 C39.9216362,37.729687 39.2555729,37.2426107 39.0244778,36.524753 L30.2671928,9.27167207 C28.4937267,3.7584318 23.368514,0.0212805972 17.5830299,0.0230195485 L1.73072217,0.0230195485 C0.771011765,0.0264992723 -0.00393846154,0.808720679 0.000100001288,1.76953674 C0.000100001288,1.94407243 0.0279167421,2.11744841 0.0800434389,2.28444602 C3.40456833,12.6580123 17.0501792,55.1380273 17.0501792,55.1380273 C18.8236452,60.6425698 23.939591,64.3756621 29.7169665,64.3808921 L226.367826,64.3808921 C232.156206,64.3884188 237.287211,60.6530072 239.063573,55.1380273 L255.859953,2.84110469 C256.154758,1.92667685 255.653184,0.946145789 254.739229,0.651580574 C254.579374,0.599973676 254.412568,0.57156089 254.244025,0.568081773 L238.733437,0.237565686 C232.836749,0.0989808704 227.551102,3.85990603 225.742306,9.48041908" id="Fill-33" fill="#043263" mask="url(#mask-14)"></path>
                </g>
            </g>
        </g>
    </g>
</svg>