<?xml version="1.0" encoding="UTF-8"?>
<svg width="256px" height="256px" viewBox="0 0 256 256" version="1.1" xmlns="http://www.w3.org/2000/svg" xmlns:xlink="http://www.w3.org/1999/xlink">
    <title>Hesaplama_Ev</title>
    <defs>
        <polygon id="path-1" points="0 0 164.814663 0 164.814663 167.505323 0 167.505323"></polygon>
        <path d="M0,150.410714 L139.12925,150.410714 C139.149687,150.410714 139.17091,150.410714 139.192133,150.410714 L139.192133,150.410714 C140.172326,150.393012 140.954437,149.592325 140.936666,148.621229 L140.936666,148.621229 L140.936666,35.0932849 L85.4426525,0 L0,150.410714 Z" id="path-3"></path>
        <path d="M0.60525154,0.276284774 C0.589530721,0.289898806 0.575381984,0.304313664 0.562805328,0.320330172 L0.562805328,0.320330172 C0.415029627,0.396408588 0.322276794,0.551768722 0.326206999,0.720742888 L0.326206999,0.720742888 C0.168998807,8.32858448 1.42666434,47.4088655 46.6240196,45.7263313 L46.6240196,45.7263313 C46.7930184,45.7151197 46.9274314,45.5789794 46.939222,45.4068019 L46.939222,45.4068019 C46.9494406,45.3187111 46.9203571,45.2298195 46.8598319,45.1665543 L46.8598319,45.1665543 L1.34806025,0.320330172 C1.24430284,0.201808009 1.0996713,0.140945276 0.955039768,0.140945276 L0.955039768,0.140945276 C0.830059255,0.140945276 0.705078742,0.1857915 0.60525154,0.276284774" id="path-5"></path>
        <linearGradient x1="105.61004%" y1="54.8824091%" x2="-1.54551439%" y2="46.3334982%" id="linearGradient-7">
            <stop stop-color="#028383" offset="0%"></stop>
            <stop stop-color="#028383" offset="100%"></stop>
        </linearGradient>
        <polygon id="path-8" points="0 0 64.2106003 0 64.2106003 68.5945401 0 68.5945401"></polygon>
        <path d="M63.2476279,0 C63.0677509,0.0120123815 62.9017699,0.098501528 62.7844252,0.240247629 L62.7844252,0.240247629 L0.174859023,67.5888655 C-0.0582863409,67.8331173 -0.0582863409,68.2271234 0.174859023,68.4705743 L0.174859023,68.4705743 C0.331575939,68.4825867 0.485976842,68.5098148 0.638061732,68.5506569 L0.638061732,68.5506569 C9.90211592,68.870987 66.0268442,68.0701616 64.0196324,0.719942062 L64.0196324,0.719942062 C63.9794882,0.311521093 63.6482983,0 63.25226,0 L63.25226,0 C63.2507159,0 63.2491719,0 63.2476279,0" id="path-10"></path>
        <linearGradient x1="92.3865293%" y1="53.7506576%" x2="11.6318351%" y2="46.5773515%" id="linearGradient-12">
            <stop stop-color="#028383" offset="0%"></stop>
            <stop stop-color="#028383" offset="100%"></stop>
        </linearGradient>
    </defs>
    <g id="Hesaplama_Ev" stroke="none" stroke-width="1" fill="none" fill-rule="evenodd">
        <g id="Group-2" transform="translate(13.000170, 0.554208)">
            <path d="M149.182657,69.8200216 L176.007401,69.8200216 C177.314713,69.8200216 178.37429,70.8684165 178.37429,72.1619313 L178.37429,108.851849 L146.815768,108.851849 L146.815768,72.1619313 C146.815768,70.8684165 147.876134,69.8200216 149.182657,69.8200216" id="Fill-1" fill="#072146"></path>
            <path d="M149.182657,69.8200216 L176.007401,69.8200216 C177.314713,69.8200216 178.37429,70.8684165 178.37429,72.1619313 L178.37429,76.4554323 L146.815768,76.4554323 L146.815768,72.239995 C146.814979,70.9332094 147.862722,69.862176 149.182657,69.8200216" id="Fill-3" fill="#1464A5"></path>
            <path d="M5.9858643,154.128769 L111.864705,168.648609 L217.743546,154.128769 L112.811461,87.7746624 C112.213427,87.3843441 111.437876,87.3843441 110.839053,87.7746624 L5.9858643,154.128769 Z" id="Fill-5" fill="#043263"></path>
            <g id="Group-9" transform="translate(29.497200, 87.403782)">
                <mask id="mask-2" fill="white">
                    <use xlink:href="#path-1"></use>
                </mask>
                <g id="Clip-8"></g>
                <path d="M0,51.8147513 L81.4209864,0.292738708 C82.0190204,-0.0975795693 82.7945711,-0.0975795693 83.393394,0.292738708 L164.814663,51.8147513 L164.814663,165.709625 C164.831738,166.683859 164.047508,167.487134 163.062882,167.505674 C163.042369,167.505674 163.020278,167.505674 162.999765,167.505674 L1.81461501,167.505674 C0.829989125,167.522263 0.017357187,166.747091 0,165.772856 C0,165.751779 0,165.730702 0,165.709625 L0,51.8147513 Z" id="Fill-7" fill="#49A5E6" mask="url(#mask-2)"></path>
            </g>
            <g id="Group" transform="translate(53.463188, 104.498196)">
                <mask id="mask-4" fill="white">
                    <use xlink:href="#path-3"></use>
                </mask>
                <g id="Clip-12"></g>
                <path d="M0,150.410714 L139.12925,150.410714 C139.149687,150.410714 139.17091,150.410714 139.192133,150.410714 L139.192133,150.410714 C140.172326,150.393012 140.954437,149.592325 140.936666,148.621229 L140.936666,148.621229 L140.936666,35.0932849 L85.4426525,0 L0,150.410714 Z" id="Fill-11" fill="#1973B8" mask="url(#mask-4)"></path>
            </g>
            <g id="Group-20" transform="translate(0.000000, 22.765504)">
                <path d="M93.0486238,153.339506 L130.677887,153.339506 C131.998898,153.339506 133.069578,154.396786 133.069578,155.701263 L133.069578,232.143443 L90.6569333,232.143443 L90.6569333,155.701263 C90.6569333,154.396786 91.7276134,153.339506 93.0486238,153.339506" id="Fill-14" fill="#EFC650"></path>
                <path d="M6.54907208,109.011365 C-0.0248877936,113.12712 -1.97570999,121.727062 2.1930065,128.21953 L2.24402923,128.299042 L3.34921293,130.032365 C4.23705334,131.424816 6.08331893,131.837878 7.47987675,130.956512 L110.986223,65.6337737 L110.986223,65.6337737 C111.590523,65.2401477 112.374997,65.2401477 112.980095,65.6337737 L216.486104,130.956299 C217.882794,131.837749 219.729244,131.424516 220.616983,130.031815 L221.721491,128.299042 L221.721491,128.299042 C225.91253,121.81051 223.982436,113.19561 217.411665,109.057813 C217.386154,109.042068 217.36144,109.02711 217.336725,109.011365 L112.899575,43.433264 C112.295274,43.0396379 111.5108,43.0396379 110.9065,43.433264 L6.54907208,109.011365 Z" id="Fill-16" fill="#004481"></path>
                <path d="M161.849825,44.8559282 C161.690379,-0.174892951 123.502258,-0.332343374 115.769922,0.0612826849 C114.999001,0.110879568 114.385134,0.717850952 114.334111,1.4783365 C114.175462,9.19340726 115.610476,47.2176846 161.132318,45.6431803 C161.690379,45.5644551 161.769305,45.3282795 161.849825,44.8559282" id="Fill-18" fill="#5AC4C4"></path>
            </g>
            <g id="Group-23" transform="translate(112.010663, 22.669730)">
                <mask id="mask-6" fill="white">
                    <use xlink:href="#path-5"></use>
                </mask>
                <g id="Clip-22"></g>
                <path d="M0.60525154,0.276284774 C0.589530721,0.289898806 0.575381984,0.304313664 0.562805328,0.320330172 L0.562805328,0.320330172 C0.415029627,0.396408588 0.322276794,0.551768722 0.326206999,0.720742888 L0.326206999,0.720742888 C0.168998807,8.32858448 1.42666434,47.4088655 46.6240196,45.7263313 L46.6240196,45.7263313 C46.7930184,45.7151197 46.9274314,45.5789794 46.939222,45.4068019 L46.939222,45.4068019 C46.9494406,45.3187111 46.9203571,45.2298195 46.8598319,45.1665543 L46.8598319,45.1665543 L1.34806025,0.320330172 C1.24430284,0.201808009 1.0996713,0.140945276 0.955039768,0.140945276 L0.955039768,0.140945276 C0.830059255,0.140945276 0.705078742,0.1857915 0.60525154,0.276284774" id="Fill-21" fill="url(#linearGradient-7)" mask="url(#mask-6)"></path>
            </g>
            <g id="Group-26" transform="translate(165.155377, 0.000000)">
                <mask id="mask-9" fill="white">
                    <use xlink:href="#path-8"></use>
                </mask>
                <g id="Clip-25"></g>
                <path d="M62.2556124,-0.000316690057 C-1.60096817,0.633063423 -0.533640143,57.7956186 0.153752677,67.2171478 C0.208683069,67.9661198 0.802999392,68.5488295 1.52624955,68.5630806 C10.6813149,68.8797706 66.0702229,68.0880455 64.1629177,1.66230611 C64.1629177,0.553890909 63.551817,-0.000316690057 62.2556124,-0.000316690057" id="Fill-24" fill="#5AC4C4" mask="url(#mask-9)"></path>
            </g>
            <g id="Group-29" transform="translate(165.213951, 0.006370)">
                <mask id="mask-11" fill="white">
                    <use xlink:href="#path-10"></use>
                </mask>
                <g id="Clip-28"></g>
                <path d="M63.2476279,0 C63.0677509,0.0120123815 62.9017699,0.098501528 62.7844252,0.240247629 L62.7844252,0.240247629 L0.174859023,67.5888655 C-0.0582863409,67.8331173 -0.0582863409,68.2271234 0.174859023,68.4705743 L0.174859023,68.4705743 C0.331575939,68.4825867 0.485976842,68.5098148 0.638061732,68.5506569 L0.638061732,68.5506569 C9.90211592,68.870987 66.0268442,68.0701616 64.0196324,0.719942062 L64.0196324,0.719942062 C63.9794882,0.311521093 63.6482983,0 63.25226,0 L63.25226,0 C63.2507159,0 63.2491719,0 63.2476279,0" id="Fill-27" fill="url(#linearGradient-12)" mask="url(#mask-11)"></path>
            </g>
        </g>
    </g>
</svg>