<!-- Generated by IcoMoon.io -->
<svg xmlns="http://www.w3.org/2000/svg" xmlns:xlink="http://www.w3.org/1999/xlink" width="24px" height="24px" viewBox="0 0 256 256" version="1.1">
    <title>Information</title>
    <g id="Information" stroke="none" stroke-width="1" fill="none" fill-rule="evenodd">
        <path d="M128,85.3333333 C119.146667,85.3333333 112,78.1866667 112,69.3333333 C112,60.48 119.146667,53.3333333 128,53.3333333 C136.853333,53.3333333 144,60.48 144,69.3333333 C144,78.1866667 136.853333,85.3333333 128,85.3333333 L128,85.3333333 Z M138.666667,202.666667 L117.333333,181.333333 L117.333333,106.666667 L138.666667,106.666667 L138.666667,202.666667 Z M128,0 C57.28,0 0,57.28 0,128 C0,198.72 57.28,256 128,256 C198.72,256 256,198.72 256,128 C256,57.28 198.72,0 128,0 L128,0 Z" fill="#1973B8"></path>
    </g>
</svg>