<?xml version="1.0" encoding="UTF-8"?>
<svg width="22px" height="22px" viewBox="0 0 22 22" version="1.1" xmlns="http://www.w3.org/2000/svg" xmlns:xlink="http://www.w3.org/1999/xlink">
    <title>sigota</title>
    <g id="Page-1" stroke="none" stroke-width="1" fill="none" fill-rule="evenodd">
        <g id="Mobil_" transform="translate(-19.000000, -453.000000)" fill="#1464A5">
            <path d="M33.123899,469.123633 L36.7139664,472.71404 C34.8563862,474.147379 32.5277632,475 30,475 C27.4722368,475 25.1436138,474.147379 23.2860336,472.71404 L26.876101,469.123633 C27.786033,469.67961 28.8556009,470 30,470 C31.1443991,470 32.213967,469.67961 33.123899,469.123633 Z M21.2859596,457.286034 L24.8763667,460.876101 C24.3203904,461.786033 24,462.855601 24,464 C24,465.144399 24.3203904,466.213967 24.8763667,467.123899 L21.2859596,470.713966 C19.8526207,468.856386 19,466.527763 19,464 C19,461.472237 19.8526207,459.143614 21.2859596,457.286034 Z M38.7140404,457.286034 C40.1473793,459.143614 41,461.472237 41,464 C41,466.527306 40.1476876,468.855544 38.7148178,470.712959 L35.1242464,467.122895 C35.6798451,466.21318 36,465.143978 36,464 C36,462.855601 35.6796096,461.786033 35.1236333,460.876101 Z M30,453 C32.5277632,453 34.8563862,453.852621 36.7139664,455.28596 L33.123899,458.876367 C32.213967,458.32039 31.1443991,458 30,458 C28.8560217,458 27.7868195,458.320155 26.8771046,458.875754 L23.2860336,455.28596 C25.1436138,453.852621 27.4722368,453 30,453 Z" id="sigota"></path>
        </g>
    </g>
</svg>