<?xml version="1.0" encoding="UTF-8"?>
<svg width="24px" height="24px" viewBox="0 0 24 24" version="1.1" xmlns="http://www.w3.org/2000/svg" xmlns:xlink="http://www.w3.org/1999/xlink">
    <title>kredi_basvurusu_2</title>
    <g id="kredi_basvurusu_2" stroke="none" stroke-width="1" fill="none" fill-rule="evenodd">
        <path d="M10.1561163,14.0364807 C10.2920143,14.0364807 10.426546,14.063422 10.5520421,14.1155978 L10.5520421,14.1155978 L15.4509706,16.1553994 C15.7694861,16.2880541 15.9966056,16.5762105 16.051169,16.9170621 C16.1055623,17.2578875 15.9797258,17.6025061 15.7183317,17.8279232 C15.4693913,18.0076431 15.161806,18.0864192 14.8571016,18.0480541 L14.8571016,18.0480541 L8.86035556,17.0708438 C8.75447183,17.0534533 8.64602579,17.0786922 8.55889444,17.1412656 C8.4717631,17.203839 8.41310647,17.298474 8.39588492,17.4043621 C8.37866468,17.5102458 8.40423968,17.6185216 8.4669877,17.7056529 C8.52973571,17.792614 8.62437063,17.8511004 8.73042897,17.8681517 L8.73042897,17.8681517 L14.7782464,18.8536994 C14.874073,18.8693862 14.9710913,18.8772298 15.0682841,18.8772298 C15.4771611,18.8767147 15.8737591,18.7375778 16.193296,18.4826659 C16.6940841,18.0871024 16.9455869,17.4543405 16.8533397,16.8229317 C16.8200909,16.5842056 16.7394373,16.3545238 16.6161587,16.147523 L16.6161587,16.147523 L20.9167659,14.1984278 C21.4714365,13.9479464 22.1144127,13.9900607 22.6315873,14.3107937 C22.8595402,14.4483914 22.9991908,14.6949486 23.0000473,14.9612883 C23.0008946,15.2276236 22.8626089,15.4750363 22.6354894,15.6141732 L22.6354894,15.6141732 L13.0988345,21.4118716 C12.3265647,21.9269688 11.3768107,22.1022525 10.4715806,21.8967883 L10.4715806,21.8967883 L3.65158056,20.3483637 L3.65158056,20.679324 C3.65158056,21.0058537 3.38694762,21.2704867 3.06041786,21.2704867 L3.06041786,21.2704867 L1.59148135,21.2704867 C1.43461349,21.2704867 1.28439365,21.2082494 1.17338968,21.0972454 C1.06256032,20.986416 1.00032302,20.8360216 1.00032302,20.679324 L1.00032302,20.679324 L1.00032302,14.8733319 C1.00032302,14.7166343 1.06255595,14.5662442 1.17338968,14.4554105 C1.28438929,14.3445811 1.43460913,14.2823438 1.59148135,14.2823438 L1.59148135,14.2823438 L3.06041786,14.2823438 C3.38694762,14.2823438 3.65158056,14.5469724 3.65158056,14.8733319 L3.65158056,14.8733319 L3.65158056,15.0414573 L4.68523135,14.2491081 C4.86511627,14.1111629 5.08540873,14.0364807 5.3121877,14.0364807 L5.3121877,14.0364807 Z M21,2 L21,12 L3,12 L3,2 L21,2 Z M12,3 C9.790861,3 8,4.790861 8,7 C8,9.209139 9.790861,11 12,11 C14.209139,11 16,9.209139 16,7 C16,4.790861 14.209139,3 12,3 Z M12.0833333,3.66666667 L12.0833333,4.97783934 L14,4.25761773 L14,4.8578024 L12.0833333,5.57802401 L12.0833333,6.25207756 L14,5.53185596 L14,6.13204063 L12.0833333,6.85226223 L12.0833333,9.40073869 L12.2816672,9.39482923 C12.538334,9.37907064 12.7638879,9.33179479 12.9583333,9.25300092 C13.2013901,9.15450859 13.3975687,9.01754474 13.546875,8.84210526 C13.6961813,8.66666667 13.8055552,8.46045055 13.875,8.22345337 C13.9270836,8.04570548 13.9596355,7.85670624 13.9726563,7.6564524 L13.9791667,7.45244691 L15,7.45244691 L14.9942492,7.68463468 C14.9520765,8.51835541 14.6779539,9.1580977 14.171875,9.60387812 C13.6622571,10.0527759 12.8701046,10.294487 11.7953969,10.3290171 L11.5208333,10.3333333 L11.03125,10.3333333 L11.03125,7.24930748 L10,7.63711911 L10,7.03693444 L11.03125,6.64912281 L11.03125,5.97506925 L10,6.36288089 L10,5.76269621 L11.03125,5.37488458 L11.03125,3.66666667 L12.0833333,3.66666667 Z" id="Combined-Shape" fill="#1464A5" fill-rule="nonzero"></path>
    </g>
</svg>