<svg width="24px" height="18px" viewBox="0 0 256 256" version="1.1"
     xmlns="http://www.w3.org/2000/svg"
     xmlns:xlink="http://www.w3.org/1999/xlink">
    <title>Icon_Show</title>
    <g id="Icon_Show" stroke="none" stroke-width="1" fill="none"
       fill-rule="evenodd">
        <path d="M128,32 C224,32 256,128 256,128 C256,128 224,224 128,224 C32,224 0,128 0,128 C0,128 32,32 128,32 Z M128,64 C92.653899,64 64,92.653223 64,128 C64,163.345469 92.653899,192 128,192 C163.346101,192 192,163.345469 192,128 C192,92.653223 163.346101,64 128,64 Z M128.106611,85.3362948 L128,128.002961 L157.920713,97.5921337 C165.786246,105.331806 170.666667,116.093609 170.666667,128 C170.666667,151.564023 151.564023,170.666667 128,170.666667 C104.435977,170.666667 85.3333333,151.564023 85.3333333,128 C85.3333333,104.435977 104.435977,85.3333333 128.106611,85.3362948 L128.106611,85.3362948 Z"
              id="icon-show" fill="#1464A5"></path>
    </g>
</svg>