<?xml version="1.0" encoding="UTF-8"?>
<svg width="19px" height="19px" viewBox="0 0 19 19" version="1.1" xmlns="http://www.w3.org/2000/svg" xmlns:xlink="http://www.w3.org/1999/xlink">
    <title>icon-search</title>
    <g id="Desktop" stroke="none" stroke-width="1" fill="none" fill-rule="evenodd">
        <g id="1200_scroll" transform="translate(-1185.000000, -28.000000)" fill="#225A8F">
            <path d="M1192.77273,28 C1197.06549,28 1200.54545,31.4799685 1200.54545,35.7727273 C1200.54545,37.4785294 1199.99596,39.0559913 1199.06434,40.3377618 L1204,45.2727273 L1202.27273,47 L1197.33677,42.0650594 C1196.05517,42.9962491 1194.47809,43.5454545 1192.77273,43.5454545 C1188.47997,43.5454545 1185,40.065486 1185,35.7727273 C1185,31.4799685 1188.47997,28 1192.77273,28 Z M1192.77273,29.5353535 C1196.21753,29.5353535 1199.0101,32.3279209 1199.0101,35.7727273 C1199.0101,39.2175337 1196.21753,42.010101 1192.77273,42.010101 C1189.32792,42.010101 1186.53535,39.2175337 1186.53535,35.7727273 C1186.53535,32.3279209 1189.32792,29.5353535 1192.77273,29.5353535 Z M1192.77273,30.5909091 L1192.77273,32.3181818 C1194.68062,32.3181818 1196.22727,33.8648345 1196.22727,35.7727273 L1197.95455,35.7727273 C1197.95455,32.9108881 1195.63457,30.5909091 1192.77273,30.5909091 Z" id="icon-search"></path>
        </g>
    </g>
</svg>